<svg width="28" height="28" viewBox="0 0 28 28" fill="none" xmlns="http://www.w3.org/2000/svg">
<path d="M18.4151 11.0641C18.4513 12.2249 18.2226 13.3159 17.791 14.2994L23.2545 19.7627C24.0466 20.5654 24.4993 21.647 24.4993 22.7787V23.3082C24.4993 24.1401 23.825 24.8156 22.992 24.8156H20.2445C19.4115 24.8156 18.7371 24.1401 18.7371 23.3082C18.7371 22.4916 18.0873 21.8242 17.2706 21.8021L17.1773 21.7997C16.349 21.7764 15.6956 21.0917 15.712 20.2634L15.733 19.1666L14.4566 17.8904C13.0181 18.6615 11.2809 18.9764 9.46792 18.6182C6.49992 18.0337 4.1246 15.6047 3.6136 12.6239C2.7876 7.82077 6.58042 3.65809 11.2751 3.85293C15.1158 4.01159 18.2938 7.22346 18.4151 11.0641Z" stroke="#7A808C" stroke-width="1.5" stroke-linecap="round" stroke-linejoin="round"/>
<path fill-rule="evenodd" clip-rule="evenodd" d="M12.75 11.3076C12.75 10.3183 11.9485 9.51562 10.958 9.51562C9.96746 9.51562 9.16479 10.3183 9.16479 11.3076C9.16479 12.2982 9.96746 13.1008 10.958 13.1008C11.9485 13.1008 12.75 12.2982 12.75 11.3076Z" stroke="#7A808C" stroke-width="1.5" stroke-linecap="round" stroke-linejoin="round"/>
</svg>
